<?xml version="1.0" encoding="UTF-8"?>
<svg width="800" height="600" xmlns="http://www.w3.org/2000/svg">
    <!-- Title -->
    <text x="400" y="40" text-anchor="middle" font-size="24" font-weight="bold">Crop Yield Prediction System - Database Schema</text>
    
    <!-- Users Collection -->
    <rect x="50" y="100" width="200" height="160" fill="white" stroke="black" stroke-width="2"/>
    <text x="150" y="130" text-anchor="middle" font-weight="bold">Users</text>
    <line x1="50" y1="140" x2="250" y2="140" stroke="black" stroke-width="1"/>
    <text x="60" y="160">_id: ObjectId</text>
    <text x="60" y="180">name: String</text>
    <text x="60" y="200">email: String</text>
    <text x="60" y="220">password: String (hashed)</text>
    <text x="60" y="240">role: String</text>
    
    <!-- Predictions Collection -->
    <rect x="550" y="100" width="200" height="180" fill="white" stroke="black" stroke-width="2"/>
    <text x="650" y="130" text-anchor="middle" font-weight="bold">Predictions</text>
    <line x1="550" y1="140" x2="750" y2="140" stroke="black" stroke-width="1"/>
    <text x="560" y="160">_id: ObjectId</text>
    <text x="560" y="180">userId: ObjectId</text>
    <text x="560" y="200">cropType: String</text>
    <text x="560" y="220">predictedYield: Number</text>
    <text x="560" y="240">parameters: Object</text>
    <text x="560" y="260">createdAt: Date</text>
    
    <!-- Weather Data Collection -->
    <rect x="50" y="400" width="200" height="160" fill="white" stroke="black" stroke-width="2"/>
    <text x="150" y="430" text-anchor="middle" font-weight="bold">WeatherData</text>
    <line x1="50" y1="440" x2="250" y2="440" stroke="black" stroke-width="1"/>
    <text x="60" y="460">_id: ObjectId</text>
    <text x="60" y="480">location: Object</text>
    <text x="60" y="500">temperature: Number</text>
    <text x="60" y="520">humidity: Number</text>
    <text x="60" y="540">timestamp: Date</text>
    
    <!-- Contact Messages Collection -->
    <rect x="550" y="400" width="200" height="160" fill="white" stroke="black" stroke-width="2"/>
    <text x="650" y="430" text-anchor="middle" font-weight="bold">ContactMessages</text>
    <line x1="550" y1="440" x2="750" y2="440" stroke="black" stroke-width="1"/>
    <text x="560" y="460">_id: ObjectId</text>
    <text x="560" y="480">name: String</text>
    <text x="560" y="500">email: String</text>
    <text x="560" y="520">message: String</text>
    <text x="560" y="540">createdAt: Date</text>
    
    <!-- Relationships -->
    <!-- Users to Predictions (1:N) -->
    <line x1="250" y1="180" x2="550" y2="180" stroke="black" stroke-width="2"/>
    <circle cx="250" cy="180" r="5" fill="white" stroke="black" stroke-width="2"/>
    <text x="530" y="170">N</text>
    <text x="270" y="170">1</text>
    
    <!-- Weather Data to Predictions (1:N) -->
    <line x1="250" y1="480" x2="550" y2="240" stroke="black" stroke-width="2"/>
    <circle cx="250" cy="480" r="5" fill="white" stroke="black" stroke-width="2"/>
    <text x="530" y="230">N</text>
    <text x="270" y="470">1</text>
</svg>