<svg xmlns="http://www.w3.org/2000/svg" width="800" height="600" viewBox="0 0 800 600">
  <rect width="100%" height="100%" fill="white"/>
  <g stroke="black" stroke-width="2" fill="none">
    <rect x="50" y="50" width="200" height="100"/>
    <text x="150" y="120" font-size="16" text-anchor="middle" fill="black">Resource Allocation</text>
    <rect x="300" y="50" width="200" height="100"/>
    <text x="400" y="120" font-size="16" text-anchor="middle" fill="black">Monitoring</text>
    <rect x="550" y="50" width="200" height="100"/>
    <text x="650" y="120" font-size="16" text-anchor="middle" fill="black">Optimization</text>
    <line x1="250" y1="100" x2="300" y2="100" marker-end="url(#arrow)"/>
    <line x1="500" y1="100" x2="550" y2="100" marker-end="url(#arrow)"/>
    <line x1="650" y1="150" x2="650" y2="200" marker-end="url(#arrow)"/>
    <line x1="650" y1="250" x2="650" y2="300" marker-end="url(#arrow)"/>
    <rect x="300" y="300" width="200" height="100"/>
    <text x="400" y="370" font-size="16" text-anchor="middle" fill="black">Feedback Loop</text>
    <line x1="400" y1="400" x2="400" y2="450" marker-end="url(#arrow)"/>
    <line x1="400" y1="450" x2="150" y2="450" marker-end="url(#arrow)"/>
    <line x1="150" y1="450" x2="150" y2="150" marker-end="url(#arrow)"/>
  </g>
  <defs>
    <marker id="arrow" markerWidth="10" markerHeight="10" refX="5" refY="5" orient="auto-start-reverse">
      <path d="M0,0 L10,5 L0,10 z" fill="black" />
    </marker>
  </defs>
</svg>